inDegrees=yes
name=ik_S53_A04_T01
DataType=double
version=3
OpenSimVersion=4.3-2021-08-27-4bc7ad9
endheader
time	pelvis_tilt	pelvis_list	pelvis_rotation	pelvis_tx	pelvis_ty	pelvis_tz	hip_flexion_r	hip_adduction_r	hip_rotation_r	knee_angle_r	knee_angle_r_beta	ankle_angle_r	subtalar_angle_r	mtp_angle_r	hip_flexion_l	hip_adduction_l	hip_rotation_l	knee_angle_l	knee_angle_l_beta	ankle_angle_l	subtalar_angle_l	mtp_angle_l	lumbar_extension	lumbar_bending	lumbar_rotation	arm_flex_r	arm_add_r	arm_rot_r	elbow_flex_r	pro_sup_r	wrist_flex_r	wrist_dev_r	arm_flex_l	arm_add_l	arm_rot_l	elbow_flex_l	pro_sup_l	wrist_flex_l	wrist_dev_l
13.3799999999998	1.818485144961807	-0.1313983744312316	20.38146655343536	0	0.9399999999999999	0	-2.097289371400083	-5.858999436425268	-5.13288833939814	3.484998527421251	0.06082469873065472	0	0	0	-3.482760089422896	-4.880186528285695	-4.775891417114633	0.4452397663138945	0.007770899882987596	0	0	0	0	0	0	28.19009775450749	-28.19009775450747	4.158566915860079	74.2400755823585	85.84143331887044	0	0	28.19009775450749	-28.19009775450747	4.158566915860079	74.2400755823585	85.84143331872154	0	0
13.3999999999998	1.923395374472319	-0.07501885671147254	20.39891382170621	0	0.9399999999999999	0	-2.226414534533231	-5.879352620868768	-5.153200636881747	3.559437069168103	0.06212389637452054	0	0	0	-3.435261977148427	-4.906914637458228	-4.737558695922016	0.6293611500384518	0.01098442425230902	0	0	0	0	0	0	28.19194954052158	-28.19194954052156	4.158748933173145	74.24243208342212	85.84125130156679	0	0	28.19194954052158	-28.19194954052156	4.158748933173145	74.24243208342212	85.84125130141794	0	0
13.4199999999998	1.987919578544757	-0.05978723324144671	20.3938309391175	0	0.9399999999999999	0	-2.093584823230008	-5.86734263688126	-5.202313670482344	3.866991378375825	0.067491731698892	0	0	0	-3.342673591642698	-4.986826743602932	-4.69740921189499	0.811962736400144	0.01417142315368532	0	0	0	0	0	0	28.19466521532402	-28.19466521532399	4.159018241278106	74.24591986702464	85.84098199347582	0	0	28.19466521532402	-28.19466521532399	4.159018241278106	74.24591986702464	85.84098199332705	0	0
13.4399999999998	2.104507510914228	-0.0182286780577668	20.37857644693826	0	0.9399999999999999	0	-2.221389121171718	-5.862102054897609	-5.201150320342126	3.873175018196978	0.06759965657352855	0	0	0	-3.272442437400973	-5.065356558253529	-4.504190570906182	1.339240564064681	0.02337415731919473	0	0	0	0	0	0	28.19728553597788	-28.19728553597786	4.159278128993478	74.24928563911999	85.84072210577391	0	0	28.19728553597788	-28.19728553597786	4.159278128993478	74.24928563911999	85.84072210562516	0	0
13.4599999999998	2.195437514932228	0.01134560726063112	20.33815186927823	0	0.9399999999999999	0	-2.140949118604309	-5.876269609034622	-5.13843254773013	4.221891449393958	0.07368590645372013	0	0	0	-3.143785036780079	-5.114568841189452	-4.329798795219244	1.686099351416426	0.02942798519795754	0	0	0	0	0	0	28.20009328023606	-28.20009328023603	4.159556546917757	74.25289134342935	85.84044368786405	0	0	28.20009328023606	-28.20009328023603	4.159556546917757	74.25289134342935	85.84044368771534	0	0
13.4799999999998	2.296575272637913	0.01580640119870593	20.28004222150113	0	0.9399999999999999	0	-2.2249677191462	-5.851963512544073	-5.070176834409698	4.320412019510719	0.07540541478319955	0	0	0	-2.850299952379112	-5.237015834567584	-4.060497817603984	2.189357688564832	0.03821150016930892	0	0	0	0	0	0	28.20391066170588	-28.20391066170586	4.159935465349819	74.25779875025039	85.84006476945169	0	0	28.20391066170588	-28.20391066170586	4.159935465349819	74.25779875025039	85.84006476930297	0	0
13.4999999999998	2.429908617288722	0.0009467706971066564	20.1895250913541	0	0.9399999999999999	0	-2.340399251435306	-5.794655496962336	-4.958740872621681	4.396805984110769	0.07673874099412241	0	0	0	-2.829496384848828	-5.363339908892519	-4.075281476224554	2.475967640486171	0.04321378749931894	0	0	0	0	0	0	28.20591290509951	-28.20591290509948	4.160133146287113	74.26035839109073	85.83986708852463	0	0	28.20591290509951	-28.20591290509948	4.160133146287113	74.26035839109073	85.83986708837597	0	0
13.5199999999998	2.515494463644922	0.01135965454628463	20.11719209666275	0	0.9399999999999999	0	-2.132208425782185	-5.830621079518973	-4.885738068143889	4.740029215232833	0.0827291164465359	0	0	0	-2.743310646776566	-5.446932359782373	-4.103963029046947	2.979045032585042	0.05199414438379075	0	0	0	0	0	0	28.20868804599386	-28.20868804599383	4.160407453852782	74.26391036084792	85.83959278097318	0	0	28.20868804599386	-28.20868804599383	4.160407453852782	74.26391036084792	85.83959278082455	0	0
13.5399999999998	2.59657843421975	-0.004638550435614928	20.01992442500866	0	0.9399999999999999	0	-2.098662657739173	-5.768356826375084	-4.815786067156974	4.856825998570899	0.08476760487152359	0	0	0	-2.738212477956979	-5.531912840178355	-4.248276448676966	3.091034874679436	0.05394873585712645	0	0	0	0	0	0	28.21057763533792	-28.2105776353379	4.160593711756589	74.26632191975959	85.83940652307903	0	0	28.21057763533792	-28.2105776353379	4.160593711756589	74.26632191975959	85.83940652293045	0	0
13.5599999999998	2.629011465632006	-0.002617791766744626	19.99802199115912	0	0.9399999999999999	0	-2.092415894345762	-5.762163145556181	-4.791876793195421	5.039303298271876	0.08795243456145412	0	0	0	-2.687788299328746	-5.582520306524877	-4.340487420057483	3.355408359222463	0.05856292361737261	0	0	0	0	0	0	28.24523215338399	-28.24523215338397	4.163913527005822	74.3091955300696	85.83608670800079	0	0	28.24523215338399	-28.24523215338397	4.163913527005822	74.3091955300696	85.83608670785279	0	0
13.5799999999998	2.677437006437835	-0.001523976924843688	19.94927325235377	0	0.9399999999999999	0	-2.043675518757353	-5.720622867173955	-4.86146812587148	5.056483153845274	0.088252279606227	0	0	0	-2.69211663708439	-5.638590025083262	-4.463453438892972	3.399487257438978	0.05933224552190226	0	0	0	0	0	0	28.24597991951391	-28.24597991951389	4.163986588039868	74.31014109598514	85.83601364697051	0	0	28.24597991951391	-28.24597991951389	4.163986588039868	74.31014109598514	85.83601364682249	0	0
13.5999999999998	2.686255603392567	-0.01417630355971612	19.92459298544811	0	0.9399999999999999	0	-1.988170518905708	-5.718868401405631	-4.840965499444357	5.248456904733705	0.09160285363663351	0	0	0	-2.587249577368031	-5.707769122984867	-4.5249149255196	3.674400994300634	0.06413039538909945	0	0	0	0	0	0	28.27310050660931	-28.27310050660928	4.166608402004682	74.34402709983326	85.83339183314102	0	0	28.27310050660931	-28.27310050660928	4.166608402004682	74.34402709983326	85.83339183299348	0	0
13.6199999999998	2.713917069375055	-0.01717944120364799	19.91662632027012	0	0.9399999999999999	0	-2.080790013379546	-5.700087109825414	-4.976043048446563	5.058013435452225	0.08827898805875101	0	0	0	-2.602211213443067	-5.737387567092972	-4.582331251436242	3.655568323877056	0.06380170328326507	0	0	0	0	0	0	28.33825244580493	-28.3382524458049	4.172729418497163	74.42296061730508	85.82727081696262	0	0	28.33825244580493	-28.3382524458049	4.172729418497163	74.42296061730508	85.82727081681615	0	0
13.6399999999998	2.710919050290685	-0.03946107652984028	19.92902921583791	0	0.9399999999999999	0	-2.106224891260795	-5.660419781091239	-5.048956514668324	4.969118129396512	0.08672747227851076	0	0	0	-2.571009330902558	-5.771950817508555	-4.573168038507298	3.700010895164432	0.06457737248028207	0	0	0	0	0	0	28.41034909673418	-28.41034909673416	4.179494188051693	74.51019350331731	85.82050604775512	0	0	28.41034909673418	-28.41034909673416	4.179494188051693	74.51019350331731	85.82050604760985	0	0
13.6599999999998	2.683059846148403	-0.08002467970434336	19.95166453657967	0	0.9399999999999999	0	-2.039666967002085	-5.640750253897789	-5.089068292017738	5.00673480863392	0.08738400718487012	0	0	0	-2.489105033629574	-5.828609876313845	-4.578961995764917	3.775002320958899	0.06588621977116053	0	0	0	0	0	0	28.4541773360758	-28.45417733607578	4.183527684420435	74.56213205775457	85.81647255159247	0	0	28.4541773360758	-28.45417733607578	4.183527684420435	74.56213205775457	85.81647255144794	0	0
13.6799999999998	2.701957335758071	-0.1098006555979606	19.96243377286129	0	0.9399999999999999	0	-2.205471866263081	-5.59956427757853	-5.143896041301574	4.732259685467515	0.08259351257079939	0	0	0	-2.526422146835587	-5.871879610627005	-4.578520159279038	3.659451415270139	0.06386947601323023	0	0	0	0	0	0	28.47953768569771	-28.47953768569768	4.185930617584868	74.59314521753808	85.81406961855158	0	0	28.47953768569771	-28.47953768569768	4.185930617584868	74.59314521753808	85.81406961840749	0	0
13.6999999999998	2.710143333306064	-0.1688295626501584	19.99951058036364	0	0.9399999999999999	0	-2.193677690674311	-5.531520603457915	-5.194396974509744	4.667876707775806	0.081469817627841	0	0	0	-2.497503711533885	-5.962809934007009	-4.55357490872168	3.624607508626206	0.06326133511803607	0	0	0	0	0	0	28.51536183111403	-28.515361831114	4.189158110875521	74.63464262164655	85.81084212542518	0	0	28.51536183111403	-28.515361831114	4.189158110875521	74.63464262164655	85.81084212528165	0	0
13.7199999999998	2.695086588385608	-0.2153533268524118	19.98664292381526	0	0.9399999999999999	0	-2.160707696583646	-5.484776818134947	-5.177498725038414	4.575045760802529	0.07984961195541306	0	0	0	-2.461742066605141	-6.020283436049404	-4.564576810665125	3.620315239628169	0.06318642089163903	0	0	0	0	0	0	28.5760815466668	-28.57608154666678	4.194812197886342	74.70752798587476	85.80518803870395	0	0	28.5760815466668	-28.57608154666678	4.194812197886342	74.70752798587476	85.80518803856144	0	0
13.7399999999998	2.699730120750007	-0.2328253286000813	19.98309617447743	0	0.9399999999999999	0	-2.291852198482422	-5.456021784314753	-5.058870949725375	4.330128824829472	0.07557500502878707	0	0	0	-2.458703657912514	-6.048150173272033	-4.588588303493766	3.587607267037826	0.0626155590782855	0	0	0	0	0	0	28.5785537503344	-28.57855375033438	4.195052633217546	74.71063734568284	85.80494760338519	0	0	28.5785537503344	-28.57855375033438	4.195052633217546	74.71063734568284	85.80494760324271	0	0
13.7599999999998	2.673250498338633	-0.2583255008002348	19.98290331862947	0	0.9399999999999999	0	-2.295393060500083	-5.438633023507204	-5.042432761122773	4.106087159317461	0.07166474030395066	0	0	0	-2.423724581501828	-6.078225350956719	-4.593525926520377	3.531688875192657	0.06163959902816695	0	0	0	0	0	0	28.60867269069292	-28.60867269069289	4.197845959496022	74.74663846480632	85.80215427724987	0	0	28.60867269069292	-28.60867269069289	4.197845959496022	74.74663846480632	85.80215427710758	0	0
